HIERARCHY
ROOT Hips
{
	OFFSET 0.000000 0.000000 0.000000
	CHANNELS 6 Xposition Yposition Zposition Xrotation Yrotation Zrotation
	JOINT LeftUpLeg_virtual
	{
		OFFSET 0.000000 0.000000 0.000000
		CHANNELS 3 Xrotation Yrotation Zrotation
		JOINT LeftUpLeg
		{
			OFFSET 10.205400 -3.823500 0.155100
			CHANNELS 3 Xrotation Yrotation Zrotation
			JOINT LeftLeg
			{
				OFFSET 0.708757 -12.982077 0.567790
				CHANNELS 3 Xrotation Yrotation Zrotation
				JOINT LeftFoot
				{
					OFFSET -0.708756 -10.717838 -2.184338
					CHANNELS 3 Xrotation Yrotation Zrotation
					JOINT LeftToeBase
					{
						OFFSET 0.108149 -7.191104 7.560241
						CHANNELS 3 Xrotation Yrotation Zrotation
						JOINT LeftToe_End
						{
							OFFSET 0.070230 0.081724 4.490308
							CHANNELS 3 Xrotation Yrotation Zrotation
							End Site
							{
								OFFSET 0 0 0
							}
						}
					}
				}
			}
		}
	}
	JOINT RightUpLeg_virtual
	{
		OFFSET 0.000000 0.000000 0.000000
		CHANNELS 3 Xrotation Yrotation Zrotation
		JOINT RightUpLeg
		{
			OFFSET -10.205400 -3.823500 0.005500
			CHANNELS 3 Xrotation Yrotation Zrotation
			JOINT RightLeg
			{
				OFFSET -0.708756 -12.982134 0.610632
				CHANNELS 3 Xrotation Yrotation Zrotation
				JOINT RightFoot
				{
					OFFSET 0.708754 -10.717769 -1.945823
					CHANNELS 3 Xrotation Yrotation Zrotation
					JOINT RightToeBase
					{
						OFFSET -0.108140 -7.191069 7.372968
						CHANNELS 3 Xrotation Yrotation Zrotation
						JOINT RightToe_End
						{
							OFFSET -0.070227 0.081735 4.479403
							CHANNELS 3 Xrotation Yrotation Zrotation
							End Site
							{
								OFFSET 0 0 0
							}
						}
					}
				}
			}
		}
	}
	JOINT Spine_virtual
	{
		OFFSET 0.000000 0.000000 0.000000
		CHANNELS 3 Xrotation Yrotation Zrotation
		JOINT Spine
		{
			OFFSET 0.000000 6.876099 0.125700
			CHANNELS 3 Xrotation Yrotation Zrotation
			JOINT Spine1
			{
				OFFSET 0.000000 5.730043 0.104720
				CHANNELS 3 Xrotation Yrotation Zrotation
				JOINT Spine1_split
				{
					OFFSET 0.000000 5.730043 0.104720
					CHANNELS 3 Xrotation Yrotation Zrotation
					JOINT Spine2
					{
						OFFSET 0.000000 5.730043 0.104720
						CHANNELS 3 Xrotation Yrotation Zrotation
						JOINT Neck_virtual
						{
							OFFSET 0.000000 0.000000 0.000000
							CHANNELS 3 Xrotation Yrotation Zrotation
							JOINT Neck
							{
								OFFSET 0.000000 10.314075 0.188496
								CHANNELS 3 Xrotation Yrotation Zrotation
								JOINT Head
								{
									OFFSET 0.000000 7.643700 -2.377400
									CHANNELS 3 Xrotation Yrotation Zrotation
									JOINT HeadTop_End
									{
										OFFSET 0.000000 43.788605 -13.619600
										CHANNELS 3 Xrotation Yrotation Zrotation
										End Site
										{
											OFFSET 0 0 0
										}
									}
								}
							}
						}
						JOINT LeftShoulder_virtual
						{
							OFFSET 0.000000 0.000000 0.000000
							CHANNELS 3 Xrotation Yrotation Zrotation
							JOINT LeftShoulder
							{
								OFFSET 2.196100 4.412489 0.087492
								CHANNELS 3 Xrotation Yrotation Zrotation
								JOINT LeftShoulder_split
								{
									OFFSET 2.196100 4.412489 0.087492
									CHANNELS 3 Xrotation Yrotation Zrotation
									JOINT LeftArm
									{
										OFFSET 8.771219 -2.981674 -0.026999
										CHANNELS 3 Xrotation Yrotation Zrotation
										JOINT LeftForeArm
										{
											OFFSET 8.512804 0.000000 -0.000000
											CHANNELS 3 Xrotation Yrotation Zrotation
											JOINT LeftHand
											{
												OFFSET 18.484802 0.000000 -0.000000
												CHANNELS 3 Xrotation Yrotation Zrotation
												End Site
												{
													OFFSET 0 0 0
												}
											}
										}
									}
								}
							}
						}
						JOINT RightShoulder_virtual
						{
							OFFSET 0.000000 0.000000 0.000000
							CHANNELS 3 Xrotation Yrotation Zrotation
							JOINT RightShoulder
							{
								OFFSET -2.196100 4.412496 0.070690
								CHANNELS 3 Xrotation Yrotation Zrotation
								JOINT RightShoulder_split
								{
									OFFSET -2.196100 4.412496 0.070690
									CHANNELS 3 Xrotation Yrotation Zrotation
									JOINT RightArm
									{
										OFFSET -8.771282 -2.981682 -0.094208
										CHANNELS 3 Xrotation Yrotation Zrotation
										JOINT RightForeArm
										{
											OFFSET -8.494598 0.000000 0.000000
											CHANNELS 3 Xrotation Yrotation Zrotation
											JOINT RightHand
											{
												OFFSET -18.483803 0.000000 0.000001
												CHANNELS 3 Xrotation Yrotation Zrotation
												End Site
												{
													OFFSET 0 0 0
												}
											}
										}
									}
								}
							}
						}
					}
				}
			}
		}
	}
}
MOTION
Frames: 7
Frame Time: 0.03333333
-28.681908 9.198807 0.566080 0.000000 0.000000 0.000000 -46.026121 9.624500 103.363876 -37.088788 11.808344 -1.807436 72.840873 -2.423161 -17.906458 -23.055396 -12.990094 -1.474421 -6.346730 -2.447584 7.961156 0.000000 0.000000 0.000000 -56.050168 5.662628 106.803914 -52.984141 -4.335717 -48.617327 122.376308 12.277174 1.638848 -1.159003 4.871220 28.363945 9.878649 -0.822046 1.945519 0.000000 0.000000 0.000000 -48.029812 5.829582 98.219951 12.788669 -0.971911 -7.986792 16.895723 0.165038 -2.528628 0.226388 2.091033 -1.252945 0.000000 0.000000 0.000000 12.344880 0.919920 -2.139014 42.382666 8.392387 -11.999887 -7.386097 13.366330 -2.586448 0.000000 0.000000 0.000000 14.788731 1.909519 -2.573756 -0.047655 -3.659375 -13.207317 1.387224 -12.281570 -0.737386 -56.916909 -8.145852 -22.302246 46.809305 -13.199692 11.350227 0.000000 0.000000 0.000000 16.083668 1.802501 -3.133492 4.905211 18.625970 -11.155515 -10.224558 -6.768694 3.231639 -22.903981 -4.580158 16.354258 23.165599 48.672980 -15.143484 0.000000 0.000000 0.000000 
-30.398947 7.581913 0.995241 0.000000 0.000000 0.000000 -49.243601 -1.284731 110.207903 -30.318148 5.097532 -9.133941 70.116427 2.913618 -14.057048 -22.263188 -6.876343 -0.902329 -8.045839 -2.137994 6.319699 0.000000 0.000000 0.000000 -57.609845 -4.896336 112.234980 -51.900961 -0.211176 -52.809691 123.229604 7.723561 3.756502 -4.015135 1.697220 26.942315 7.152802 -1.452824 3.835716 0.000000 0.000000 0.000000 -51.842772 -2.734081 103.682599 13.645513 -1.665147 -8.255335 16.858993 -0.296951 -1.455025 0.590330 2.814286 -0.678746 0.000000 0.000000 0.000000 12.004143 0.242402 -0.980418 39.248231 5.288975 -9.327206 -7.607260 5.846219 -2.536409 0.000000 0.000000 0.000000 14.436320 1.320374 -1.282188 -0.311864 -4.047885 -17.392728 -0.195590 -11.524962 -0.839911 -60.893759 -1.864981 -25.772585 48.154473 -15.686547 13.131137 0.000000 0.000000 0.000000 16.196793 1.151283 -2.036907 4.889914 19.140092 -10.915606 -9.717822 -6.637833 3.209132 -19.162540 -3.731836 15.123077 27.035648 46.168606 -19.647239 0.000000 0.000000 0.000000 
-32.246914 6.708107 1.150984 0.000000 0.000000 0.000000 -52.053391 -10.730135 113.715246 -25.857971 -1.218725 -12.148244 65.873220 7.996903 -10.388149 -14.476099 0.062754 -3.153618 -8.001269 -1.536830 4.804368 0.000000 0.000000 0.000000 -58.273828 -13.489432 114.515730 -47.566701 0.425378 -57.116268 119.085550 3.432141 5.862363 -6.707793 -0.152111 27.128999 4.979132 -1.219855 3.585867 0.000000 0.000000 0.000000 -55.239981 -9.848842 106.542488 14.752304 -1.943412 -7.565550 15.757122 -0.348086 -0.032594 -0.622427 2.765970 0.797307 0.000000 0.000000 0.000000 10.722773 0.021236 0.378262 34.379361 1.973565 -6.393041 -10.686091 -2.684522 -2.401784 0.000000 0.000000 0.000000 12.917377 1.181319 0.330630 -0.578185 -4.051499 -20.494847 -1.542908 -10.481614 -2.248222 -63.990751 10.056582 -26.097294 51.204613 -20.827019 18.188377 0.000000 0.000000 0.000000 14.950739 0.862454 -0.670206 5.060101 19.548941 -10.957378 -10.189946 -6.804973 3.472253 -16.846072 1.363879 12.982121 25.127590 44.229686 -19.650676 0.000000 0.000000 0.000000 
-34.103012 6.520563 0.949619 0.000000 0.000000 0.000000 -55.495260 -17.841349 114.110632 -23.203000 -5.269605 -10.600247 61.110543 12.084240 -7.461670 0.693565 5.320058 -8.864397 -6.322218 -0.844942 3.536869 0.000000 0.000000 0.000000 -59.967784 -19.382550 114.089629 -41.299405 -2.222293 -59.631335 109.247721 -0.826164 7.762336 -8.704574 -1.046559 28.355208 4.605537 -0.267267 1.559922 0.000000 0.000000 0.000000 -58.769844 -15.411589 106.852839 16.240499 -1.852611 -5.724702 13.960707 -0.328090 1.533627 -1.434077 2.100399 1.839920 0.000000 0.000000 0.000000 8.991971 -0.040378 1.731137 28.431357 -1.024570 -3.722226 -15.656820 -10.568062 -2.906132 0.000000 0.000000 0.000000 10.789522 1.088306 2.047590 -0.786221 -4.240758 -21.927907 -2.365519 -9.410696 -4.168750 -67.381496 23.704189 -22.844367 56.829138 -26.607021 26.705095 0.000000 0.000000 0.000000 12.866801 0.640752 0.780437 5.350427 19.402517 -11.223980 -10.849452 -8.124005 4.339555 -16.591703 8.232212 10.878962 17.774264 41.433819 -15.253132 0.000000 0.000000 0.000000 
-35.887619 6.881252 0.365591 0.000000 0.000000 0.000000 -59.707567 -22.315608 111.607231 -21.807773 -6.001270 -5.544010 57.205754 15.086073 -5.739843 18.195564 6.687690 -14.960146 -4.314613 -0.285923 2.815164 0.000000 0.000000 0.000000 -63.487845 -22.472099 111.756853 -34.569910 -7.015915 -59.311450 94.903730 -4.862484 8.924621 -8.713307 -1.017519 29.528031 6.232966 0.945205 -1.118042 0.000000 0.000000 0.000000 -62.381941 -19.405314 105.121754 18.050134 -1.379965 -2.858779 12.066438 -0.506857 2.978756 -2.163127 1.912502 2.138110 0.000000 0.000000 0.000000 7.361721 -0.188224 2.954696 22.649843 -3.193046 -1.306845 -21.317920 -16.113533 -4.049100 0.000000 0.000000 0.000000 8.671028 0.800021 3.622434 -0.897496 -4.604520 -21.660287 -2.862302 -9.000439 -5.566068 -71.300386 34.380205 -17.428944 64.796803 -30.057491 37.541834 0.000000 0.000000 0.000000 10.556401 0.248308 2.043782 5.662763 18.287951 -11.800030 -11.613502 -10.485776 5.714996 -17.290438 13.985955 9.743612 7.371651 36.429121 -8.393228 0.000000 0.000000 0.000000 
-37.602112 7.522682 -0.196974 0.000000 0.000000 0.000000 -64.538574 -23.711121 107.458157 -21.155182 -4.029958 0.778751 53.632039 17.329454 -4.845602 30.300317 5.361991 -17.770510 -3.057164 -0.044923 2.874484 0.000000 0.000000 0.000000 -68.983162 -23.103117 108.758127 -28.465203 -12.212159 -56.402302 78.985476 -8.698911 9.416065 -6.120191 -0.788696 29.635948 8.332725 1.752883 -3.136307 0.000000 0.000000 0.000000 -65.821030 -21.988631 101.890098 19.956360 -0.717690 0.527721 10.466809 -0.917298 4.034063 -2.026686 1.870849 1.893235 0.000000 0.000000 0.000000 6.096741 -0.520631 3.820644 17.652358 -4.613258 1.026294 -26.263797 -18.894433 -5.048851 0.000000 0.000000 0.000000 7.081006 0.272457 4.807924 -0.916526 -5.451098 -19.929302 -2.650932 -8.399933 -6.345881 -73.767573 39.870942 -12.606710 71.798225 -29.214232 46.915975 0.000000 0.000000 0.000000 8.572278 -0.349826 2.965346 5.824183 16.286188 -12.351804 -11.931027 -13.194521 6.888079 -18.056626 17.391777 9.917319 -2.807413 29.434403 -1.887152 0.000000 0.000000 0.000000 
-39.188637 8.160160 -0.669559 0.000000 0.000000 0.000000 -69.471944 -22.512594 103.486245 -20.780652 -0.504940 6.503781 48.918710 18.340818 -3.965924 33.162846 3.217600 -16.732053 -3.607593 -0.255304 3.773577 0.000000 0.000000 0.000000 -75.380966 -22.325887 106.185782 -24.641316 -16.190029 -52.914647 66.145369 -12.014666 9.500483 -1.110711 -0.879956 28.488219 9.343004 1.718809 -3.778657 0.000000 0.000000 0.000000 -69.186661 -23.267859 98.513294 21.550208 -0.152370 3.715856 9.241747 -1.462330 4.613438 -0.884324 2.327884 0.823779 0.000000 0.000000 0.000000 5.161651 -0.963041 4.274195 14.292524 -5.776875 3.579613 -29.771907 -19.303112 -5.154807 0.000000 0.000000 0.000000 6.222816 -0.415248 5.479431 -0.775200 -6.561256 -17.056885 -1.359751 -7.878382 -6.451949 -72.863611 40.345900 -11.225658 74.340892 -24.982238 51.372325 0.000000 0.000000 0.000000 7.284643 -0.959475 3.486042 5.775398 13.391546 -13.283824 -11.747633 -15.071273 7.547391 -18.631784 17.748298 11.029839 -10.846888 21.815623 2.624099 0.000000 0.000000 0.000000 
